<?xml version="1.0" standalone="no"?>
<!DOCTYPE svg PUBLIC "-//W3C//DTD SVG 20010904//EN"
 "http://www.w3.org/TR/2001/REC-SVG-20010904/DTD/svg10.dtd">
<svg version="1.0" xmlns="http://www.w3.org/2000/svg"
 width="694.000000pt" height="694.000000pt" viewBox="0 0 694.000000 694.000000"
 preserveAspectRatio="xMidYMid meet">
<metadata>
Created by potrace 1.14, written by Peter Selinger 2001-2017
</metadata>
<g transform="translate(0.000000,694.000000) scale(0.100000,-0.100000)"
fill="#000000" stroke="none">
<path d="M2847 6913 c-4 -3 -19 -7 -34 -9 -16 -1 -30 -3 -33 -4 -3 -1 -9 -3
-15 -4 -26 -3 -115 -41 -115 -49 0 -4 -4 -6 -9 -2 -5 3 -17 -2 -25 -11 -9 -8
-16 -13 -16 -9 0 10 -115 -81 -152 -120 -18 -20 -33 -40 -33 -46 0 -5 -7 -14
-15 -19 -8 -5 -10 -10 -5 -10 6 0 2 -5 -8 -11 -9 -6 -15 -14 -12 -20 4 -5 2
-9 -3 -9 -9 0 -35 -54 -47 -98 -19 -68 -21 -205 -4 -247 7 -16 14 -41 16 -55
2 -13 9 -30 15 -37 5 -7 7 -17 3 -23 -3 -5 -1 -10 5 -10 6 0 9 -4 6 -9 -7 -11
64 -151 76 -151 5 0 29 11 54 25 31 18 59 25 92 24 73 -2 97 -11 97 -38 0 -18
-15 -33 -65 -63 -78 -48 -72 -42 -64 -62 6 -14 20 -16 101 -14 108 3 108 3
118 -73 l6 -46 77 -36 c102 -48 215 -86 278 -93 60 -7 92 6 145 63 32 33 119
155 119 166 0 2 -31 23 -70 45 l-69 42 -138 -3 -138 -2 -97 39 c-84 33 -98 42
-98 61 0 60 20 68 78 31 20 -13 62 -36 92 -51 l55 -28 150 8 c82 4 191 11 240
15 l90 6 -75 2 c-100 3 -295 36 -325 56 -48 32 -53 66 -24 163 12 39 11 45 -7
70 -25 34 -74 59 -132 69 -64 10 -75 26 -70 101 6 89 27 114 109 131 35 7 93
19 129 27 36 8 74 16 85 18 11 1 25 5 30 8 6 4 22 9 37 13 17 4 34 19 44 39 9
17 26 40 38 50 13 11 16 21 10 25 -6 4 -13 15 -17 25 -4 10 -11 16 -16 13 -5
-3 -11 0 -14 7 -2 7 -22 21 -43 32 -22 11 -41 22 -44 26 -10 11 -82 41 -108
44 -15 2 -29 4 -32 5 -3 2 -8 2 -12 1 -5 0 -8 4 -8 9 0 11 -192 14 -203 3z
m-167 -444 c31 -7 59 -25 96 -60 63 -59 54 -61 -76 -18 -106 35 -120 43 -120
70 0 22 29 24 100 8z m-32 -329 c76 -36 82 -42 82 -69 l0 -31 -69 25 c-146 53
-142 50 -132 108 2 16 40 5 119 -33z"/>
<path d="M5974 6627 c-10 -13 -20 -29 -22 -37 -6 -25 -54 -100 -65 -100 -6 0
-8 -3 -4 -6 6 -6 -69 -162 -83 -174 -3 -3 -34 -61 -70 -130 -35 -68 -84 -150
-108 -182 -34 -44 -43 -62 -38 -81 9 -39 67 -102 123 -137 l52 -32 65 26 c35
14 70 26 78 26 13 1 52 49 120 151 21 32 46 63 56 68 9 4 55 16 102 25 47 10
108 28 137 41 42 19 52 28 50 47 -2 30 -37 59 -58 48 -8 -5 -26 -10 -40 -12
-13 -2 -29 -7 -35 -10 -6 -4 -48 -10 -92 -14 -60 -5 -82 -4 -82 5 0 6 8 15 18
18 9 4 25 15 36 24 10 10 44 28 75 40 100 40 157 94 136 129 -13 21 -76 8
-163 -35 -51 -24 -94 -40 -97 -35 -4 6 20 34 51 63 116 106 130 122 130 155 0
32 -11 42 -54 47 -14 2 -26 -4 -32 -16 -6 -10 -16 -19 -22 -19 -6 0 -24 -14
-39 -31 -17 -19 -32 -28 -40 -23 -7 4 -10 3 -6 -3 3 -5 -19 -33 -49 -62 -30
-29 -54 -50 -54 -47 0 10 24 62 41 86 9 14 17 30 18 35 0 6 7 17 15 26 30 36
39 106 16 134 -18 22 -43 19 -66 -8z"/>
<path d="M1116 6610 c-132 -34 -227 -90 -336 -201 -130 -130 -196 -243 -189
-321 3 -32 65 -116 81 -111 5 2 8 -1 8 -6 0 -9 29 -23 40 -19 3 1 16 -5 30
-12 14 -8 28 -13 33 -12 4 1 7 -3 7 -9 0 -5 5 -7 10 -4 6 4 17 2 24 -4 8 -7
18 -11 22 -10 5 1 11 0 14 -1 8 -4 61 -10 95 -11 17 0 49 -3 72 -5 l42 -5 3
-77 c2 -63 6 -76 18 -73 99 27 264 40 275 21 10 -16 25 -1 25 25 0 33 40 103
76 134 53 44 99 78 108 79 9 1 25 26 50 77 13 28 13 32 -10 62 l-24 32 40 43
c57 62 110 170 110 223 0 37 -7 51 -40 90 -22 25 -40 43 -40 38 0 -4 -4 -3 -8
2 -9 13 -44 29 -112 50 -87 28 -322 31 -424 5z"/>
<path d="M3370 6578 c-52 -3 -120 -15 -150 -26 -30 -10 -63 -18 -73 -16 -33 5
-31 -26 8 -122 l38 -94 56 1 c31 0 85 6 121 12 l65 12 -3 40 c-2 37 0 42 38
63 73 41 87 99 28 118 -13 4 -25 9 -28 13 -3 3 -48 3 -100 -1z"/>
<path d="M2991 6523 c-67 -14 -81 -23 -81 -59 0 -33 30 -61 90 -84 30 -12 72
-38 92 -58 51 -49 65 -33 33 37 -14 29 -23 57 -20 61 3 5 0 10 -5 12 -6 2 -12
10 -14 18 -3 15 -12 43 -24 71 -6 14 -14 14 -71 2z"/>
<path d="M3573 6350 c-23 -5 -56 -16 -75 -26 -18 -9 -42 -19 -53 -20 -63 -10
-215 -48 -212 -53 1 -3 24 -50 50 -104 54 -113 70 -124 188 -134 l67 -6 4 29
c3 30 -11 94 -38 178 -20 60 -11 72 66 81 49 6 58 4 75 -15 17 -19 20 -39 23
-140 4 -137 6 -133 -92 -143 -80 -8 -91 -22 -26 -36 81 -18 163 -14 176 7 6
10 13 62 14 117 4 138 3 152 -9 238 -2 12 -67 37 -93 36 -13 -1 -42 -5 -65 -9z"/>
<path d="M3146 6218 c-9 -12 -16 -26 -16 -31 0 -5 -8 -21 -18 -35 -40 -57 15
-112 110 -112 40 0 47 3 45 19 0 11 -5 17 -9 15 -4 -3 -8 2 -8 12 0 26 -64
153 -77 154 -6 0 -19 -10 -27 -22z"/>
<path d="M3820 5888 c-117 -22 -128 -24 -224 -46 l-79 -18 -14 -53 c-26 -105
-92 -197 -205 -292 -35 -29 -69 -49 -83 -49 -23 0 -208 55 -230 68 -5 3 -44
18 -88 33 -43 15 -118 52 -167 83 l-88 56 -122 -30 c-269 -66 -367 -108 -445
-191 -47 -50 -115 -175 -115 -210 0 -8 -5 -20 -12 -27 -13 -13 -6 -16 48 -26
48 -8 153 -59 210 -102 66 -50 94 -84 135 -164 29 -58 33 -76 38 -174 l6 -110
30 -8 c17 -4 42 -19 57 -33 15 -14 30 -25 33 -25 17 0 128 -126 164 -187 64
-108 71 -134 128 -458 9 -49 24 -112 34 -139 l18 -48 -29 -25 c-48 -40 -110
-189 -110 -266 l0 -38 29 16 c16 8 50 33 76 55 26 22 51 37 57 34 6 -4 8 -2 5
3 -6 9 55 87 109 140 8 8 19 24 25 35 10 18 17 19 66 13 66 -8 149 -29 198
-49 l35 -15 -46 -68 c-25 -37 -50 -69 -55 -71 -5 -2 -9 -8 -9 -13 0 -16 -129
-166 -188 -219 -90 -80 -153 -119 -243 -150 -133 -47 -236 -36 -307 33 -26 25
-32 37 -26 57 15 56 12 70 -16 94 -16 13 -26 27 -22 31 4 5 1 5 -7 0 -9 -5
-19 -2 -28 10 -7 11 -13 15 -13 11 0 -5 -15 3 -33 16 -77 60 -127 -37 -98
-190 9 -48 12 -50 131 -122 l85 -52 117 4 118 4 17 -35 c14 -29 18 -60 17
-151 0 -104 -5 -132 -48 -295 -98 -373 -156 -545 -196 -585 -9 -9 -19 -24 -23
-33 -10 -27 -51 -47 -118 -58 -50 -9 -142 -27 -219 -44 -26 -6 -96 -30 -100
-35 -3 -3 -23 -16 -45 -29 -22 -12 -95 -64 -163 -114 l-123 -92 5 -58 c7 -67
39 -152 87 -232 42 -69 101 -134 120 -131 8 1 37 13 64 27 28 14 106 47 175
74 69 26 134 52 145 56 87 36 138 53 195 63 8 2 27 8 41 14 14 5 70 15 125 21
54 7 115 14 134 16 123 16 251 138 345 330 30 61 69 133 86 160 18 28 48 74
67 104 19 30 68 86 110 125 41 39 91 96 112 126 58 85 158 178 200 185 3 1 20
11 39 22 19 12 38 20 43 17 4 -3 8 -1 8 4 0 5 19 15 43 21 41 12 45 11 94 -22
29 -19 72 -43 97 -52 26 -10 46 -21 46 -25 0 -4 6 -7 13 -7 6 0 80 -27 162
-60 83 -34 177 -69 210 -79 33 -10 62 -21 65 -24 3 -3 14 -6 25 -8 56 -9 245
-81 245 -93 0 -5 6 -9 13 -9 6 0 34 -20 61 -43 l49 -43 -32 -129 c-53 -216
-61 -327 -39 -553 10 -111 13 -123 32 -126 36 -7 75 -3 69 8 -12 19 328 -6
388 -29 13 -5 18 2 23 27 3 18 7 40 7 48 1 8 12 76 26 150 13 74 26 153 29
175 32 269 90 529 123 556 12 10 21 22 21 27 0 5 6 14 13 20 7 6 14 33 16 59
1 25 4 50 7 54 2 4 0 10 -6 14 -6 4 -8 10 -5 15 3 5 1 11 -5 15 -6 4 -8 11 -5
16 4 5 1 9 -5 9 -6 0 -8 5 -5 10 3 6 1 10 -4 10 -6 0 -11 5 -11 11 0 28 -112
135 -205 196 -93 61 -164 124 -203 183 -24 36 -63 81 -91 105 -49 41 -105 91
-132 117 -16 14 -29 24 -29 22 0 -7 -52 28 -80 53 -14 13 -30 23 -37 23 -7 0
-13 5 -13 10 0 6 -6 10 -14 10 -8 0 -22 7 -30 16 -9 8 -16 12 -16 8 0 -3 -7 0
-16 7 -9 7 -23 14 -32 15 -8 2 -18 8 -22 14 -4 7 -10 11 -14 10 -15 -4 -66 20
-66 30 0 6 -4 8 -10 5 -8 -5 -88 29 -100 44 -3 3 -11 7 -19 9 -43 9 -134 94
-143 133 -2 8 -7 17 -13 21 -13 9 -20 222 -8 215 12 -8 15 525 4 578 -8 36
-13 66 -27 174 -3 19 -9 40 -14 46 -6 7 -7 15 -3 18 3 4 0 13 -7 22 -7 8 -10
15 -7 15 4 0 -3 21 -14 46 -11 26 -17 49 -14 52 3 3 0 11 -6 19 -6 7 -8 13 -4
13 4 0 3 6 -2 13 -11 12 -27 58 -39 112 -4 17 -9 89 -11 161 -8 275 60 506
178 606 30 25 69 53 87 62 30 16 32 19 20 34 -8 9 -34 41 -59 71 -24 30 -66
75 -93 100 -27 25 -54 51 -60 57 -10 9 -39 24 -58 29 -5 2 -9 3 -10 5 -6 4
-65 10 -124 12 -34 2 -103 -5 -154 -14z m-176 -711 c25 -51 46 -101 46 -111 0
-34 -90 -507 -100 -526 -5 -9 -7 -20 -4 -22 2 -3 1 -24 -5 -47 -5 -22 -7 -41
-4 -41 3 0 32 7 65 16 33 8 61 14 62 12 14 -23 45 -163 38 -170 -5 -5 -70 -22
-145 -38 -74 -16 -163 -36 -197 -45 -34 -9 -63 -15 -64 -13 -2 2 -12 47 -23
100 l-20 97 43 7 c48 7 49 9 59 94 4 30 18 107 32 170 34 161 50 254 58 337
l7 72 -128 -33 -129 -33 1 -41 c2 -46 6 -44 -100 -62 -54 -10 -70 -10 -76 0
-9 14 -40 163 -43 205 l-2 29 170 42 c245 61 378 92 396 93 11 1 32 -30 63
-92z"/>
<path d="M5263 5683 c-13 -13 -23 -20 -23 -16 0 4 -13 -5 -28 -20 -16 -15 -31
-24 -35 -20 -4 3 -7 2 -7 -3 0 -6 -27 -23 -60 -39 -33 -16 -60 -33 -60 -37 0
-5 -4 -6 -10 -3 -5 3 -10 1 -10 -5 0 -6 -4 -8 -10 -5 -5 3 -10 1 -10 -5 0 -6
-4 -9 -9 -5 -5 3 -17 -2 -25 -11 -9 -8 -16 -13 -16 -10 0 3 -17 -3 -37 -13
-31 -16 -52 -18 -115 -14 -43 3 -78 8 -78 12 0 3 -19 6 -43 6 -23 -1 -60 3
-82 8 -22 4 -65 10 -95 12 l-55 3 -78 -77 c-90 -87 -111 -122 -132 -221 -22
-104 -20 -162 5 -178 12 -7 25 -10 31 -6 5 3 16 0 24 -6 8 -6 23 -9 34 -5 10
3 22 1 26 -4 6 -11 25 -12 235 -13 115 -1 222 5 325 17 22 2 56 6 75 9 19 2
35 5 35 6 0 1 9 4 20 6 11 2 27 5 35 7 29 7 126 60 188 103 35 24 66 44 70 45
4 0 50 48 102 107 52 58 114 125 138 148 23 24 42 46 42 51 0 4 25 34 55 66
60 62 67 82 33 93 -48 15 -63 10 -89 -31 -42 -65 -104 -125 -128 -125 -43 0
-93 31 -151 92 -33 34 -60 71 -62 83 -3 20 -3 20 -25 -2z"/>
<path d="M1210 5569 c-30 -4 -73 -12 -95 -16 l-40 -9 -3 -159 c-2 -88 2 -212
9 -275 7 -63 12 -126 13 -140 0 -14 3 -27 7 -30 4 -3 9 -21 12 -40 6 -37 14
-72 18 -80 1 -3 3 -9 4 -15 1 -5 7 -23 13 -38 7 -16 12 -33 12 -38 0 -21 84
-98 123 -114 67 -27 172 -43 328 -52 166 -8 197 -8 259 0 25 4 70 9 100 12 65
5 214 38 251 55 24 11 26 17 28 83 1 39 4 74 7 79 3 4 0 8 -5 8 -6 0 -11 8
-11 18 0 29 -80 142 -124 174 -46 33 -82 50 -174 80 -75 24 -217 21 -259 -5
-7 -5 -13 -6 -13 -2 0 3 -12 -1 -27 -8 -56 -29 -71 -30 -79 -5 -4 13 -7 25 -7
28 0 3 -7 11 -14 18 -7 8 -11 18 -8 23 4 5 2 9 -2 9 -5 0 -14 15 -22 33 -30
76 -71 188 -76 209 -2 13 -11 50 -20 83 -8 33 -15 75 -15 93 l0 32 -67 -1
c-38 -1 -93 -5 -123 -10z"/>
<path d="M1465 1404 c-38 -32 -110 -75 -130 -78 -8 -1 -18 -5 -21 -9 -9 -9
-58 -9 -67 -1 -4 4 -49 9 -101 11 -85 4 -99 2 -135 -17 -21 -13 -49 -36 -60
-51 -15 -20 -30 -29 -49 -29 -38 0 -52 -17 -52 -61 0 -26 7 -44 27 -63 20 -20
27 -37 27 -64 0 -59 -14 -176 -22 -182 -4 -3 -8 -18 -10 -34 -5 -48 -43 -137
-60 -143 -49 -15 -58 -25 -61 -65 -1 -24 5 -50 15 -65 11 -17 14 -35 9 -57
-16 -76 -17 -117 -3 -139 8 -12 20 -47 27 -78 16 -74 67 -156 113 -183 33 -19
41 -19 84 -8 26 7 53 21 60 30 23 31 76 145 100 218 31 95 97 230 143 290 29
38 57 59 126 95 85 44 127 83 120 113 -5 25 -19 51 -32 59 -7 4 -13 14 -13 22
0 17 81 75 160 115 l60 30 -14 28 c-8 16 -22 34 -30 41 -9 8 -16 19 -16 26 0
8 -4 15 -9 17 -16 6 -88 141 -96 181 -5 21 -43 77 -53 77 -4 -1 -20 -12 -37
-26z"/>
<path d="M4874 1073 l-31 -4 -8 -165 c-4 -90 -10 -176 -14 -191 l-7 -26 -27
32 c-34 41 -74 53 -104 33 -30 -19 -29 -39 5 -93 42 -66 62 -109 62 -134 0
-12 -14 -65 -31 -116 -37 -110 -43 -147 -28 -166 6 -7 8 -13 4 -13 -4 0 -2 -7
5 -15 7 -8 9 -15 5 -15 -9 0 32 -68 58 -98 30 -32 72 -29 104 8 33 39 58 38
97 -5 18 -19 35 -33 37 -31 3 3 24 6 47 7 23 2 42 7 42 11 0 19 71 38 121 34
102 -10 117 -16 139 -52 23 -40 76 -67 102 -53 10 5 25 23 34 40 13 26 19 30
42 24 15 -3 36 -18 47 -31 23 -29 80 -45 113 -33 13 5 28 22 33 39 14 40 50
40 96 0 23 -21 44 -30 67 -30 37 0 52 13 58 49 1 13 12 29 23 35 36 20 60 41
63 56 11 45 10 56 -5 80 -9 14 -23 31 -30 39 -18 17 -109 52 -117 44 -3 -3
-11 -2 -18 3 -7 6 -26 11 -43 13 -16 2 -33 8 -37 15 -4 6 -8 7 -8 2 0 -6 -5
-5 -11 1 -6 6 -18 9 -25 6 -8 -3 -14 0 -14 7 0 6 -4 9 -8 6 -4 -2 -21 1 -37 8
-107 46 -155 71 -155 80 0 5 -3 7 -6 3 -4 -3 -22 5 -40 20 -19 14 -34 22 -34
18 0 -4 -17 8 -37 26 -21 18 -36 35 -35 37 2 3 -2 8 -9 13 -10 6 -8 20 10 66
12 32 27 66 32 75 7 13 3 24 -13 43 -23 27 -47 32 -65 14 -6 -6 -27 -12 -47
-14 -41 -4 -39 -13 -20 103 23 138 25 159 10 171 -29 24 -273 39 -392 24z"/>
</g>
</svg>
